# xmcd
#
# Track frame offsets:
#	150
#	16982
#	32760
#	51295
#	67490
#	83925
#	101307
#	117827
#	129895
#	149790
#	162975
#	177972
#	192232
#	215760
#	231197
#	247122
#
# Disc length: 3499 seconds
#
# Revision: 3
# Processed by: cddbd v1.5.2PL0 Copyright (c) Steve Scherf et al.
# Submitted via: audiograbber 1.83.01
#
DISCID=ee0da910
DTITLE=MH1085 Monster Hits - Female Country Hits
DYEAR=2008
DGENRE=Karaoke
TTITLE0=Trisha Yearwood - Like We Never Had A Broken Heart (MH)
TTITLE1=Highway 101 - Who's Lonely Now (MH)
TTITLE2=Michelle Wright - Take It Like A Man (MH)
TTITLE3=Lee Ann Womack - The Fool (MH)
TTITLE4=Martina McBride - A Broken Wing (MH)
TTITLE5=Kathy Mattea - Where've You Been (MH)
TTITLE6=Deanna Carter - We Danced Anyway (MH)
TTITLE7=Mindy McCready - A Girl's Gotta Do (MH)
TTITLE8=Shania Twain - Home Ain't Where His Heart Is (MH)
TTITLE9=Holly Dunn - You Really Had Me Going (MH)
TTITLE10=Reba McEntire - They Asked About You (MH)
TTITLE11=Faith Hill - Let's Go To Vegas (MH)
TTITLE12=The Judds - Born To Be Blue (MH)
TTITLE13=Patty Loveless - On Down The Line (MH)
TTITLE14=Leann Rimes - The Light In Your Eyes (MH)
TTITLE15=Wynonna Judd - When Love Starts Talkin' (MH)
EXTD=
EXTT0=
EXTT1=
EXTT2=
EXTT3=
EXTT4=
EXTT5=
EXTT6=
EXTT7=
EXTT8=
EXTT9=
EXTT10=
EXTT11=
EXTT12=
EXTT13=
EXTT14=
EXTT15=
PLAYORDER=
